<mxfile host="app.diagrams.net" modified="2020-08-25T03:01:43.254Z" agent="5.0 (Macintosh; Intel Mac OS X 10_15_6) AppleWebKit/537.36 (KHTML, like Gecko) Chrome/84.0.4147.105 Safari/537.36 Edg/84.0.522.52" etag="qPyspNdVF5AtLoXDlFz1" version="13.6.4" type="github" pages="3">
  <diagram id="5t_msXA3C3aUCK7MmMF7" name="客户端">
    <mxGraphModel dx="946" dy="623" grid="1" gridSize="10" guides="1" tooltips="1" connect="1" arrows="1" fold="1" page="0" pageScale="1" pageWidth="1200" pageHeight="1600" math="0" shadow="0">
      <root>
        <mxCell id="0" />
        <mxCell id="1" parent="0" />
        <mxCell id="FD7otclthJIT6LNGtW_D-5" style="edgeStyle=orthogonalEdgeStyle;rounded=0;orthogonalLoop=1;jettySize=auto;html=1;exitX=0.5;exitY=1;exitDx=0;exitDy=0;" parent="1" source="FD7otclthJIT6LNGtW_D-1" edge="1">
          <mxGeometry relative="1" as="geometry">
            <mxPoint x="380" y="270" as="targetPoint" />
          </mxGeometry>
        </mxCell>
        <mxCell id="FD7otclthJIT6LNGtW_D-1" value="创建游客账号&lt;br&gt;VisitorGetAccountActivity" style="rounded=1;whiteSpace=wrap;html=1;" parent="1" vertex="1">
          <mxGeometry x="130" y="110" width="120" height="60" as="geometry" />
        </mxCell>
        <mxCell id="FD7otclthJIT6LNGtW_D-6" style="edgeStyle=orthogonalEdgeStyle;rounded=0;orthogonalLoop=1;jettySize=auto;html=1;exitX=0.5;exitY=1;exitDx=0;exitDy=0;entryX=0.5;entryY=0;entryDx=0;entryDy=0;" parent="1" source="FD7otclthJIT6LNGtW_D-2" target="FD7otclthJIT6LNGtW_D-4" edge="1">
          <mxGeometry relative="1" as="geometry" />
        </mxCell>
        <mxCell id="FD7otclthJIT6LNGtW_D-2" value="游客主页&lt;br&gt;MainActor" style="rounded=1;whiteSpace=wrap;html=1;" parent="1" vertex="1">
          <mxGeometry x="320" y="110" width="120" height="60" as="geometry" />
        </mxCell>
        <mxCell id="FD7otclthJIT6LNGtW_D-7" style="edgeStyle=orthogonalEdgeStyle;rounded=0;orthogonalLoop=1;jettySize=auto;html=1;exitX=0.5;exitY=1;exitDx=0;exitDy=0;entryX=0.5;entryY=0;entryDx=0;entryDy=0;" parent="1" source="FD7otclthJIT6LNGtW_D-3" target="FD7otclthJIT6LNGtW_D-4" edge="1">
          <mxGeometry relative="1" as="geometry" />
        </mxCell>
        <mxCell id="FD7otclthJIT6LNGtW_D-3" value="用户主页&lt;br&gt;UGMaintabActor" style="rounded=1;whiteSpace=wrap;html=1;" parent="1" vertex="1">
          <mxGeometry x="510" y="110" width="120" height="60" as="geometry" />
        </mxCell>
        <mxCell id="FD7otclthJIT6LNGtW_D-17" style="edgeStyle=orthogonalEdgeStyle;rounded=0;orthogonalLoop=1;jettySize=auto;html=1;exitX=0.5;exitY=1;exitDx=0;exitDy=0;entryX=0.5;entryY=0;entryDx=0;entryDy=0;" parent="1" source="FD7otclthJIT6LNGtW_D-4" target="FD7otclthJIT6LNGtW_D-15" edge="1">
          <mxGeometry relative="1" as="geometry">
            <Array as="points">
              <mxPoint x="380" y="510" />
              <mxPoint x="580" y="510" />
            </Array>
          </mxGeometry>
        </mxCell>
        <mxCell id="FD7otclthJIT6LNGtW_D-4" value="CarrierCenter&lt;br&gt;checkAndSetFreeType" style="rounded=0;whiteSpace=wrap;html=1;" parent="1" vertex="1">
          <mxGeometry x="320" y="270" width="120" height="60" as="geometry" />
        </mxCell>
        <mxCell id="FD7otclthJIT6LNGtW_D-10" value="" style="edgeStyle=orthogonalEdgeStyle;rounded=0;orthogonalLoop=1;jettySize=auto;html=1;entryX=0.5;entryY=0;entryDx=0;entryDy=0;" parent="1" source="FD7otclthJIT6LNGtW_D-8" target="FD7otclthJIT6LNGtW_D-9" edge="1">
          <mxGeometry relative="1" as="geometry" />
        </mxCell>
        <mxCell id="FD7otclthJIT6LNGtW_D-51" style="edgeStyle=orthogonalEdgeStyle;rounded=0;orthogonalLoop=1;jettySize=auto;html=1;exitX=0.5;exitY=1;exitDx=0;exitDy=0;entryX=0.5;entryY=0;entryDx=0;entryDy=0;" parent="1" source="FD7otclthJIT6LNGtW_D-8" target="FD7otclthJIT6LNGtW_D-50" edge="1">
          <mxGeometry relative="1" as="geometry" />
        </mxCell>
        <mxCell id="FD7otclthJIT6LNGtW_D-8" value="push/active" style="rounded=1;whiteSpace=wrap;html=1;" parent="1" vertex="1">
          <mxGeometry x="740" y="110" width="120" height="60" as="geometry" />
        </mxCell>
        <mxCell id="FD7otclthJIT6LNGtW_D-12" style="edgeStyle=orthogonalEdgeStyle;rounded=0;orthogonalLoop=1;jettySize=auto;html=1;exitX=0.5;exitY=1;exitDx=0;exitDy=0;entryX=0.5;entryY=0;entryDx=0;entryDy=0;" parent="1" source="FD7otclthJIT6LNGtW_D-9" target="2" edge="1">
          <mxGeometry relative="1" as="geometry" />
        </mxCell>
        <mxCell id="FD7otclthJIT6LNGtW_D-9" value="判断运营商信息与上次是否一样" style="rhombus;whiteSpace=wrap;html=1;" parent="1" vertex="1">
          <mxGeometry x="760" y="220" width="80" height="80" as="geometry" />
        </mxCell>
        <mxCell id="FD7otclthJIT6LNGtW_D-14" value="" style="edgeStyle=orthogonalEdgeStyle;rounded=0;orthogonalLoop=1;jettySize=auto;html=1;" parent="1" source="2" target="FD7otclthJIT6LNGtW_D-13" edge="1">
          <mxGeometry relative="1" as="geometry" />
        </mxCell>
        <mxCell id="2" value="设置当前移动网络运营商" style="rounded=1;whiteSpace=wrap;html=1;" parent="1" vertex="1">
          <mxGeometry x="740" y="340" width="120" height="60" as="geometry" />
        </mxCell>
        <mxCell id="FD7otclthJIT6LNGtW_D-16" value="" style="edgeStyle=orthogonalEdgeStyle;rounded=0;orthogonalLoop=1;jettySize=auto;html=1;" parent="1" source="FD7otclthJIT6LNGtW_D-13" target="FD7otclthJIT6LNGtW_D-15" edge="1">
          <mxGeometry relative="1" as="geometry" />
        </mxCell>
        <mxCell id="FD7otclthJIT6LNGtW_D-13" value="强制刷新免流&lt;br&gt;CarrierCenter.forceRefreshFreeType" style="whiteSpace=wrap;html=1;rounded=1;" parent="1" vertex="1">
          <mxGeometry x="740" y="480" width="120" height="60" as="geometry" />
        </mxCell>
        <mxCell id="FD7otclthJIT6LNGtW_D-19" value="" style="edgeStyle=orthogonalEdgeStyle;rounded=0;orthogonalLoop=1;jettySize=auto;html=1;" parent="1" source="FD7otclthJIT6LNGtW_D-15" target="FD7otclthJIT6LNGtW_D-18" edge="1">
          <mxGeometry relative="1" as="geometry" />
        </mxCell>
        <mxCell id="FD7otclthJIT6LNGtW_D-15" value="实例化当前运营商免流策略" style="whiteSpace=wrap;html=1;rounded=1;" parent="1" vertex="1">
          <mxGeometry x="520" y="560" width="120" height="60" as="geometry" />
        </mxCell>
        <mxCell id="FD7otclthJIT6LNGtW_D-21" style="edgeStyle=orthogonalEdgeStyle;rounded=0;orthogonalLoop=1;jettySize=auto;html=1;exitX=0.5;exitY=1;exitDx=0;exitDy=0;" parent="1" source="FD7otclthJIT6LNGtW_D-18" target="FD7otclthJIT6LNGtW_D-20" edge="1">
          <mxGeometry relative="1" as="geometry" />
        </mxCell>
        <mxCell id="FD7otclthJIT6LNGtW_D-18" value="CarrierStrategy&lt;br&gt;checkAndSetFreeType&lt;br&gt;注册应用切后台广播" style="whiteSpace=wrap;html=1;rounded=1;" parent="1" vertex="1">
          <mxGeometry x="520" y="700" width="120" height="60" as="geometry" />
        </mxCell>
        <mxCell id="FD7otclthJIT6LNGtW_D-25" value="" style="edgeStyle=orthogonalEdgeStyle;rounded=0;orthogonalLoop=1;jettySize=auto;html=1;entryX=0.5;entryY=0;entryDx=0;entryDy=0;" parent="1" source="FD7otclthJIT6LNGtW_D-20" target="FD7otclthJIT6LNGtW_D-26" edge="1">
          <mxGeometry relative="1" as="geometry">
            <mxPoint x="440" y="970" as="targetPoint" />
          </mxGeometry>
        </mxCell>
        <mxCell id="FD7otclthJIT6LNGtW_D-20" value="CarrierStrategy&lt;br&gt;onSwitchBackground" style="rounded=1;whiteSpace=wrap;html=1;" parent="1" vertex="1">
          <mxGeometry x="380" y="860" width="120" height="60" as="geometry" />
        </mxCell>
        <mxCell id="FD7otclthJIT6LNGtW_D-23" style="edgeStyle=orthogonalEdgeStyle;rounded=0;orthogonalLoop=1;jettySize=auto;html=1;exitX=0.5;exitY=1;exitDx=0;exitDy=0;entryX=0.5;entryY=0;entryDx=0;entryDy=0;" parent="1" source="FD7otclthJIT6LNGtW_D-22" target="FD7otclthJIT6LNGtW_D-20" edge="1">
          <mxGeometry relative="1" as="geometry" />
        </mxCell>
        <mxCell id="FD7otclthJIT6LNGtW_D-22" value="应用退后台" style="rounded=1;whiteSpace=wrap;html=1;" parent="1" vertex="1">
          <mxGeometry x="230" y="700" width="120" height="60" as="geometry" />
        </mxCell>
        <mxCell id="FD7otclthJIT6LNGtW_D-30" value="" style="edgeStyle=orthogonalEdgeStyle;rounded=0;orthogonalLoop=1;jettySize=auto;html=1;" parent="1" source="FD7otclthJIT6LNGtW_D-26" target="FD7otclthJIT6LNGtW_D-29" edge="1">
          <mxGeometry relative="1" as="geometry" />
        </mxCell>
        <mxCell id="FD7otclthJIT6LNGtW_D-26" value="AB开关" style="rhombus;whiteSpace=wrap;html=1;" parent="1" vertex="1">
          <mxGeometry x="400" y="950" width="80" height="80" as="geometry" />
        </mxCell>
        <mxCell id="FD7otclthJIT6LNGtW_D-32" style="edgeStyle=orthogonalEdgeStyle;rounded=0;orthogonalLoop=1;jettySize=auto;html=1;exitX=0;exitY=0.5;exitDx=0;exitDy=0;entryX=0.5;entryY=0;entryDx=0;entryDy=0;" parent="1" source="FD7otclthJIT6LNGtW_D-29" target="FD7otclthJIT6LNGtW_D-43" edge="1">
          <mxGeometry relative="1" as="geometry" />
        </mxCell>
        <mxCell id="FD7otclthJIT6LNGtW_D-33" value="app启动后第一次" style="edgeLabel;html=1;align=center;verticalAlign=middle;resizable=0;points=[];" parent="FD7otclthJIT6LNGtW_D-32" vertex="1" connectable="0">
          <mxGeometry x="-0.12" y="27" relative="1" as="geometry">
            <mxPoint as="offset" />
          </mxGeometry>
        </mxCell>
        <mxCell id="FD7otclthJIT6LNGtW_D-35" value="" style="edgeStyle=orthogonalEdgeStyle;rounded=0;orthogonalLoop=1;jettySize=auto;html=1;" parent="1" source="FD7otclthJIT6LNGtW_D-29" target="FD7otclthJIT6LNGtW_D-34" edge="1">
          <mxGeometry relative="1" as="geometry" />
        </mxCell>
        <mxCell id="FD7otclthJIT6LNGtW_D-36" value="未超过1小时" style="edgeLabel;html=1;align=center;verticalAlign=middle;resizable=0;points=[];" parent="FD7otclthJIT6LNGtW_D-35" vertex="1" connectable="0">
          <mxGeometry x="-0.2857" y="-1" relative="1" as="geometry">
            <mxPoint as="offset" />
          </mxGeometry>
        </mxCell>
        <mxCell id="FD7otclthJIT6LNGtW_D-47" style="edgeStyle=orthogonalEdgeStyle;rounded=0;orthogonalLoop=1;jettySize=auto;html=1;exitX=1;exitY=0.5;exitDx=0;exitDy=0;entryX=0.5;entryY=0;entryDx=0;entryDy=0;" parent="1" source="FD7otclthJIT6LNGtW_D-29" target="FD7otclthJIT6LNGtW_D-46" edge="1">
          <mxGeometry relative="1" as="geometry" />
        </mxCell>
        <mxCell id="FD7otclthJIT6LNGtW_D-48" value="超过1小时" style="edgeLabel;html=1;align=center;verticalAlign=middle;resizable=0;points=[];" parent="FD7otclthJIT6LNGtW_D-47" vertex="1" connectable="0">
          <mxGeometry x="0.1333" y="-27" relative="1" as="geometry">
            <mxPoint as="offset" />
          </mxGeometry>
        </mxCell>
        <mxCell id="FD7otclthJIT6LNGtW_D-29" value="" style="rhombus;whiteSpace=wrap;html=1;" parent="1" vertex="1">
          <mxGeometry x="400" y="1070" width="80" height="80" as="geometry" />
        </mxCell>
        <mxCell id="FD7otclthJIT6LNGtW_D-38" value="" style="edgeStyle=orthogonalEdgeStyle;rounded=0;orthogonalLoop=1;jettySize=auto;html=1;" parent="1" source="FD7otclthJIT6LNGtW_D-31" target="FD7otclthJIT6LNGtW_D-37" edge="1">
          <mxGeometry relative="1" as="geometry" />
        </mxCell>
        <mxCell id="FD7otclthJIT6LNGtW_D-31" value="请求运营商免流状态&lt;br&gt;requestCarrier&lt;br&gt;联通：-1&lt;br&gt;移动：1&lt;br&gt;电信：请求服务器" style="rounded=0;whiteSpace=wrap;html=1;" parent="1" vertex="1">
          <mxGeometry x="190" y="1330" width="120" height="80" as="geometry" />
        </mxCell>
        <mxCell id="FD7otclthJIT6LNGtW_D-34" value="返回" style="whiteSpace=wrap;html=1;" parent="1" vertex="1">
          <mxGeometry x="380" y="1220" width="120" height="60" as="geometry" />
        </mxCell>
        <mxCell id="FD7otclthJIT6LNGtW_D-40" value="" style="edgeStyle=orthogonalEdgeStyle;rounded=0;orthogonalLoop=1;jettySize=auto;html=1;" parent="1" source="FD7otclthJIT6LNGtW_D-37" target="FD7otclthJIT6LNGtW_D-39" edge="1">
          <mxGeometry relative="1" as="geometry" />
        </mxCell>
        <mxCell id="FD7otclthJIT6LNGtW_D-37" value="如果是免流状态&lt;br&gt;存储免流状态" style="whiteSpace=wrap;html=1;rounded=0;" parent="1" vertex="1">
          <mxGeometry x="190" y="1460" width="120" height="60" as="geometry" />
        </mxCell>
        <mxCell id="FD7otclthJIT6LNGtW_D-42" value="" style="edgeStyle=orthogonalEdgeStyle;rounded=0;orthogonalLoop=1;jettySize=auto;html=1;" parent="1" source="FD7otclthJIT6LNGtW_D-39" target="FD7otclthJIT6LNGtW_D-41" edge="1">
          <mxGeometry relative="1" as="geometry" />
        </mxCell>
        <mxCell id="FD7otclthJIT6LNGtW_D-39" value="请求mapi&lt;br&gt;requestMapi" style="whiteSpace=wrap;html=1;rounded=0;" parent="1" vertex="1">
          <mxGeometry x="190" y="1560" width="120" height="60" as="geometry" />
        </mxCell>
        <mxCell id="FD7otclthJIT6LNGtW_D-41" value="处理mapi返回&lt;br&gt;存储免流状态" style="whiteSpace=wrap;html=1;rounded=0;" parent="1" vertex="1">
          <mxGeometry x="190" y="1650" width="120" height="60" as="geometry" />
        </mxCell>
        <mxCell id="FD7otclthJIT6LNGtW_D-44" style="edgeStyle=orthogonalEdgeStyle;rounded=0;orthogonalLoop=1;jettySize=auto;html=1;exitX=0.5;exitY=1;exitDx=0;exitDy=0;entryX=0.5;entryY=0;entryDx=0;entryDy=0;" parent="1" source="FD7otclthJIT6LNGtW_D-43" target="FD7otclthJIT6LNGtW_D-31" edge="1">
          <mxGeometry relative="1" as="geometry" />
        </mxCell>
        <mxCell id="FD7otclthJIT6LNGtW_D-43" value="移动网络" style="rhombus;whiteSpace=wrap;html=1;" parent="1" vertex="1">
          <mxGeometry x="210" y="1210" width="80" height="80" as="geometry" />
        </mxCell>
        <mxCell id="FD7otclthJIT6LNGtW_D-49" style="edgeStyle=orthogonalEdgeStyle;rounded=0;orthogonalLoop=1;jettySize=auto;html=1;exitX=0.5;exitY=1;exitDx=0;exitDy=0;entryX=1;entryY=0.5;entryDx=0;entryDy=0;" parent="1" source="FD7otclthJIT6LNGtW_D-46" target="FD7otclthJIT6LNGtW_D-39" edge="1">
          <mxGeometry relative="1" as="geometry" />
        </mxCell>
        <mxCell id="FD7otclthJIT6LNGtW_D-46" value="移动网络" style="rhombus;whiteSpace=wrap;html=1;" parent="1" vertex="1">
          <mxGeometry x="580" y="1210" width="80" height="80" as="geometry" />
        </mxCell>
        <mxCell id="M2WQxrDhA5h37YQD7dsD-2" style="rounded=0;orthogonalLoop=1;jettySize=auto;html=1;exitX=0.5;exitY=1;exitDx=0;exitDy=0;entryX=0.5;entryY=0;entryDx=0;entryDy=0;shape=flexArrow;" parent="1" source="FD7otclthJIT6LNGtW_D-50" target="FD7otclthJIT6LNGtW_D-76" edge="1">
          <mxGeometry relative="1" as="geometry" />
        </mxCell>
        <mxCell id="FD7otclthJIT6LNGtW_D-50" value="更新免流配置&lt;br&gt;FreeTrafficConfig" style="rounded=0;whiteSpace=wrap;html=1;" parent="1" vertex="1">
          <mxGeometry x="990" y="230" width="120" height="60" as="geometry" />
        </mxCell>
        <mxCell id="FD7otclthJIT6LNGtW_D-76" value="FreeTrafficConfig&lt;br&gt;push/active接口下发，包含了联通vip，联通，电信，移动的免流配置" style="rounded=0;whiteSpace=wrap;html=1;" parent="1" vertex="1">
          <mxGeometry x="990" y="490" width="180" height="60" as="geometry" />
        </mxCell>
        <mxCell id="FD7otclthJIT6LNGtW_D-81" style="edgeStyle=orthogonalEdgeStyle;rounded=0;orthogonalLoop=1;jettySize=auto;html=1;exitX=0.5;exitY=0;exitDx=0;exitDy=0;" parent="1" source="FD7otclthJIT6LNGtW_D-77" edge="1">
          <mxGeometry relative="1" as="geometry">
            <mxPoint x="1080" y="550" as="targetPoint" />
          </mxGeometry>
        </mxCell>
        <mxCell id="FD7otclthJIT6LNGtW_D-77" value="FreeTrafficConfigGroup&lt;br&gt;联调、电信、移动免流配置&lt;br&gt;包含video、image等配置，以及不支持免流的地址" style="rounded=0;whiteSpace=wrap;html=1;" parent="1" vertex="1">
          <mxGeometry x="1120" y="605" width="180" height="60" as="geometry" />
        </mxCell>
        <mxCell id="FD7otclthJIT6LNGtW_D-82" style="edgeStyle=orthogonalEdgeStyle;rounded=0;orthogonalLoop=1;jettySize=auto;html=1;entryX=0.5;entryY=1;entryDx=0;entryDy=0;exitX=0.5;exitY=0;exitDx=0;exitDy=0;" parent="1" source="FD7otclthJIT6LNGtW_D-78" target="FD7otclthJIT6LNGtW_D-77" edge="1">
          <mxGeometry relative="1" as="geometry">
            <mxPoint x="1190" y="727.5" as="sourcePoint" />
          </mxGeometry>
        </mxCell>
        <mxCell id="FD7otclthJIT6LNGtW_D-78" value="FreeTrafficConfigItem&lt;br&gt;需要代理的地址，代理地址等。" style="rounded=0;whiteSpace=wrap;html=1;" parent="1" vertex="1">
          <mxGeometry x="1120" y="717.5" width="180" height="60" as="geometry" />
        </mxCell>
        <mxCell id="FD7otclthJIT6LNGtW_D-80" style="edgeStyle=orthogonalEdgeStyle;rounded=0;orthogonalLoop=1;jettySize=auto;html=1;exitX=0.5;exitY=0;exitDx=0;exitDy=0;" parent="1" source="FD7otclthJIT6LNGtW_D-79" target="FD7otclthJIT6LNGtW_D-76" edge="1">
          <mxGeometry relative="1" as="geometry" />
        </mxCell>
        <mxCell id="FD7otclthJIT6LNGtW_D-79" value="UnicomVip&lt;br&gt;包含联通vip代理服务器地址" style="rounded=0;whiteSpace=wrap;html=1;" parent="1" vertex="1">
          <mxGeometry x="900" y="605" width="120" height="60" as="geometry" />
        </mxCell>
      </root>
    </mxGraphModel>
  </diagram>
  <diagram id="wdd9Wxzh6zNCUxIPPa7Z" name="时序图">
    <mxGraphModel dx="2146" dy="623" grid="1" gridSize="10" guides="1" tooltips="1" connect="1" arrows="1" fold="1" page="1" pageScale="1" pageWidth="1200" pageHeight="1600" math="0" shadow="0">
      <root>
        <mxCell id="Zx3ItGKa6gAKtKhe6P54-0" />
        <mxCell id="Zx3ItGKa6gAKtKhe6P54-1" parent="Zx3ItGKa6gAKtKhe6P54-0" />
        <mxCell id="Zx3ItGKa6gAKtKhe6P54-2" value="Client" style="shape=umlLifeline;perimeter=lifelinePerimeter;whiteSpace=wrap;html=1;container=1;collapsible=0;recursiveResize=0;outlineConnect=0;" parent="Zx3ItGKa6gAKtKhe6P54-1" vertex="1">
          <mxGeometry x="80" y="50" width="100" height="930" as="geometry" />
        </mxCell>
        <mxCell id="Zx3ItGKa6gAKtKhe6P54-9" value="push/active" style="html=1;verticalAlign=bottom;endArrow=block;" parent="Zx3ItGKa6gAKtKhe6P54-2" target="Zx3ItGKa6gAKtKhe6P54-5" edge="1">
          <mxGeometry width="80" relative="1" as="geometry">
            <mxPoint x="50" y="90" as="sourcePoint" />
            <mxPoint x="130" y="90" as="targetPoint" />
          </mxGeometry>
        </mxCell>
        <mxCell id="Zx3ItGKa6gAKtKhe6P54-5" value="mapi" style="shape=umlLifeline;perimeter=lifelinePerimeter;whiteSpace=wrap;html=1;container=1;collapsible=0;recursiveResize=0;outlineConnect=0;" parent="Zx3ItGKa6gAKtKhe6P54-1" vertex="1">
          <mxGeometry x="280" y="50" width="100" height="930" as="geometry" />
        </mxCell>
        <mxCell id="Zx3ItGKa6gAKtKhe6P54-6" value="运营商&lt;br&gt;Server" style="shape=umlLifeline;perimeter=lifelinePerimeter;whiteSpace=wrap;html=1;container=1;collapsible=0;recursiveResize=0;outlineConnect=0;" parent="Zx3ItGKa6gAKtKhe6P54-1" vertex="1">
          <mxGeometry x="480" y="50" width="100" height="930" as="geometry" />
        </mxCell>
        <mxCell id="Zx3ItGKa6gAKtKhe6P54-7" value="微博中转服务器" style="shape=umlLifeline;perimeter=lifelinePerimeter;whiteSpace=wrap;html=1;container=1;collapsible=0;recursiveResize=0;outlineConnect=0;" parent="Zx3ItGKa6gAKtKhe6P54-1" vertex="1">
          <mxGeometry x="680" y="50" width="100" height="930" as="geometry" />
        </mxCell>
        <mxCell id="Zx3ItGKa6gAKtKhe6P54-8" value="免流CDN" style="shape=umlLifeline;perimeter=lifelinePerimeter;whiteSpace=wrap;html=1;container=1;collapsible=0;recursiveResize=0;outlineConnect=0;" parent="Zx3ItGKa6gAKtKhe6P54-1" vertex="1">
          <mxGeometry x="880" y="50" width="100" height="930" as="geometry" />
        </mxCell>
        <mxCell id="Zx3ItGKa6gAKtKhe6P54-10" value="当前网络运营商 &amp;amp; 免流配置" style="html=1;verticalAlign=bottom;endArrow=open;dashed=1;endSize=8;" parent="Zx3ItGKa6gAKtKhe6P54-1" target="Zx3ItGKa6gAKtKhe6P54-2" edge="1">
          <mxGeometry relative="1" as="geometry">
            <mxPoint x="330" y="170" as="sourcePoint" />
            <mxPoint x="250" y="170" as="targetPoint" />
          </mxGeometry>
        </mxCell>
        <mxCell id="L4AFFT017c6pMfZP4k8h-0" value="请求当前免流状态" style="html=1;verticalAlign=bottom;endArrow=block;" parent="Zx3ItGKa6gAKtKhe6P54-1" edge="1">
          <mxGeometry width="80" relative="1" as="geometry">
            <mxPoint x="130" y="320" as="sourcePoint" />
            <mxPoint x="529.5" y="320" as="targetPoint" />
          </mxGeometry>
        </mxCell>
        <mxCell id="L4AFFT017c6pMfZP4k8h-1" value="免流状态" style="html=1;verticalAlign=bottom;endArrow=open;dashed=1;endSize=8;" parent="Zx3ItGKa6gAKtKhe6P54-1" edge="1">
          <mxGeometry relative="1" as="geometry">
            <mxPoint x="530" y="360" as="sourcePoint" />
            <mxPoint x="129.5" y="360" as="targetPoint" />
          </mxGeometry>
        </mxCell>
        <mxCell id="L4AFFT017c6pMfZP4k8h-2" value="请求当前免流状态&lt;br&gt;carrier/info" style="html=1;verticalAlign=bottom;endArrow=block;" parent="Zx3ItGKa6gAKtKhe6P54-1" edge="1">
          <mxGeometry width="80" relative="1" as="geometry">
            <mxPoint x="130.25" y="440" as="sourcePoint" />
            <mxPoint x="330" y="440" as="targetPoint" />
          </mxGeometry>
        </mxCell>
        <mxCell id="Xfnc2JzhtMYeQJa7CxyX-0" value="免流信息" style="html=1;verticalAlign=bottom;endArrow=open;dashed=1;endSize=8;" parent="Zx3ItGKa6gAKtKhe6P54-1" edge="1">
          <mxGeometry relative="1" as="geometry">
            <mxPoint x="329.5" y="480" as="sourcePoint" />
            <mxPoint x="129.5" y="480" as="targetPoint" />
            <Array as="points">
              <mxPoint x="220" y="480" />
            </Array>
          </mxGeometry>
        </mxCell>
        <mxCell id="Xfnc2JzhtMYeQJa7CxyX-1" value="请求运营商" style="html=1;verticalAlign=bottom;endArrow=block;" parent="Zx3ItGKa6gAKtKhe6P54-1" edge="1">
          <mxGeometry width="80" relative="1" as="geometry">
            <mxPoint x="330" y="440" as="sourcePoint" />
            <mxPoint x="529.75" y="440" as="targetPoint" />
          </mxGeometry>
        </mxCell>
        <mxCell id="Xfnc2JzhtMYeQJa7CxyX-2" value="免流信息" style="html=1;verticalAlign=bottom;endArrow=open;dashed=1;endSize=8;" parent="Zx3ItGKa6gAKtKhe6P54-1" edge="1">
          <mxGeometry relative="1" as="geometry">
            <mxPoint x="530" y="480" as="sourcePoint" />
            <mxPoint x="330" y="480" as="targetPoint" />
            <Array as="points">
              <mxPoint x="420.5" y="480" />
            </Array>
          </mxGeometry>
        </mxCell>
        <mxCell id="Xfnc2JzhtMYeQJa7CxyX-3" value="通过免流配置中的域名，直接请求免流CDN" style="html=1;verticalAlign=bottom;endArrow=block;" parent="Zx3ItGKa6gAKtKhe6P54-1" edge="1">
          <mxGeometry width="80" relative="1" as="geometry">
            <mxPoint x="130" y="694" as="sourcePoint" />
            <mxPoint x="929.5" y="694" as="targetPoint" />
          </mxGeometry>
        </mxCell>
        <mxCell id="Xfnc2JzhtMYeQJa7CxyX-4" value="通过免流配置中的域名，请求中转服务器" style="html=1;verticalAlign=bottom;endArrow=block;" parent="Zx3ItGKa6gAKtKhe6P54-1" edge="1">
          <mxGeometry width="80" relative="1" as="geometry">
            <mxPoint x="130" y="814" as="sourcePoint" />
            <mxPoint x="730" y="814" as="targetPoint" />
          </mxGeometry>
        </mxCell>
        <mxCell id="Xfnc2JzhtMYeQJa7CxyX-5" value="返回数据" style="html=1;verticalAlign=bottom;endArrow=open;dashed=1;endSize=8;" parent="Zx3ItGKa6gAKtKhe6P54-1" edge="1">
          <mxGeometry relative="1" as="geometry">
            <mxPoint x="929.5" y="724" as="sourcePoint" />
            <mxPoint x="129.5" y="724" as="targetPoint" />
            <Array as="points">
              <mxPoint x="840" y="724" />
            </Array>
          </mxGeometry>
        </mxCell>
        <mxCell id="Xfnc2JzhtMYeQJa7CxyX-7" value="返回数据" style="html=1;verticalAlign=bottom;endArrow=open;dashed=1;endSize=8;" parent="Zx3ItGKa6gAKtKhe6P54-1" edge="1">
          <mxGeometry relative="1" as="geometry">
            <mxPoint x="730" y="871" as="sourcePoint" />
            <mxPoint x="129.5" y="871" as="targetPoint" />
          </mxGeometry>
        </mxCell>
        <mxCell id="Xfnc2JzhtMYeQJa7CxyX-11" value="分发到免流CDN" style="html=1;verticalAlign=bottom;endArrow=block;" parent="Zx3ItGKa6gAKtKhe6P54-1" target="Zx3ItGKa6gAKtKhe6P54-8" edge="1">
          <mxGeometry relative="1" as="geometry">
            <mxPoint x="730" y="814" as="sourcePoint" />
            <mxPoint x="925" y="814" as="targetPoint" />
          </mxGeometry>
        </mxCell>
        <mxCell id="Xfnc2JzhtMYeQJa7CxyX-12" value="返回数据" style="html=1;verticalAlign=bottom;endArrow=open;dashed=1;endSize=8;" parent="Zx3ItGKa6gAKtKhe6P54-1" source="Zx3ItGKa6gAKtKhe6P54-8" edge="1">
          <mxGeometry relative="1" as="geometry">
            <mxPoint x="729.5" y="871" as="targetPoint" />
            <mxPoint x="925" y="871" as="sourcePoint" />
          </mxGeometry>
        </mxCell>
        <mxCell id="Xfnc2JzhtMYeQJa7CxyX-15" value="&lt;span&gt;免流卡&lt;br&gt;（图片、视频、直播）&lt;br&gt;&lt;/span&gt;" style="text;html=1;strokeColor=none;fillColor=none;align=center;verticalAlign=middle;whiteSpace=wrap;rounded=0;" parent="Zx3ItGKa6gAKtKhe6P54-1" vertex="1">
          <mxGeometry x="-20" y="684" width="130" height="20" as="geometry" />
        </mxCell>
        <mxCell id="Xfnc2JzhtMYeQJa7CxyX-16" value="&lt;span&gt;联通会员&lt;/span&gt;" style="text;html=1;strokeColor=none;fillColor=none;align=center;verticalAlign=middle;whiteSpace=wrap;rounded=0;" parent="Zx3ItGKa6gAKtKhe6P54-1" vertex="1">
          <mxGeometry x="15" y="804" width="60" height="20" as="geometry" />
        </mxCell>
        <mxCell id="S-02nD10D-d4bgHcmyhw-0" value="carrier/get/info" style="html=1;verticalAlign=bottom;endArrow=block;" parent="Zx3ItGKa6gAKtKhe6P54-1" edge="1">
          <mxGeometry width="80" relative="1" as="geometry">
            <mxPoint x="130.5" y="230" as="sourcePoint" />
            <mxPoint x="330" y="230" as="targetPoint" />
          </mxGeometry>
        </mxCell>
        <mxCell id="S-02nD10D-d4bgHcmyhw-1" value="当前网络运营商" style="html=1;verticalAlign=bottom;endArrow=open;dashed=1;endSize=8;" parent="Zx3ItGKa6gAKtKhe6P54-1" edge="1">
          <mxGeometry relative="1" as="geometry">
            <mxPoint x="330.5" y="260" as="sourcePoint" />
            <mxPoint x="130" y="260" as="targetPoint" />
          </mxGeometry>
        </mxCell>
        <mxCell id="S-02nD10D-d4bgHcmyhw-3" value="push/active接口，返回免流配置包含联通会员和免流卡的相关配置，具体见接口文档。" style="shape=document;whiteSpace=wrap;html=1;boundedLbl=1;fillColor=#fff2cc;strokeColor=#d6b656;size=0.1111111111111111;align=left;" parent="Zx3ItGKa6gAKtKhe6P54-1" vertex="1">
          <mxGeometry x="360" y="130" width="150" height="70" as="geometry" />
        </mxCell>
        <mxCell id="BMfTMdnMGLnC48BqI3dr-0" value="carrier/get/info接口，返回当前网络运营商。网络状态发生变化的时候会请求，目前只有IOS端有此请求。" style="shape=document;whiteSpace=wrap;html=1;boundedLbl=1;fillColor=#fff2cc;strokeColor=#d6b656;size=0.1111111111111111;align=left;" parent="Zx3ItGKa6gAKtKhe6P54-1" vertex="1">
          <mxGeometry x="360" y="220" width="150" height="70" as="geometry" />
        </mxCell>
        <mxCell id="BMfTMdnMGLnC48BqI3dr-1" value="电信：由客户端请求运营商服务器&lt;br&gt;联通：写死返回-1 不免流&lt;br&gt;移动：写死返回1 免流" style="shape=document;whiteSpace=wrap;html=1;boundedLbl=1;fillColor=#fff2cc;strokeColor=#d6b656;size=0.1111111111111111;align=left;" parent="Zx3ItGKa6gAKtKhe6P54-1" vertex="1">
          <mxGeometry x="550" y="300" width="150" height="80" as="geometry" />
        </mxCell>
        <mxCell id="BMfTMdnMGLnC48BqI3dr-3" value="客户端请求mapi，有服务端请求运营商，获取免流状态。" style="shape=document;whiteSpace=wrap;html=1;boundedLbl=1;fillColor=#fff2cc;strokeColor=#d6b656;size=0.1111111111111111;align=left;" parent="Zx3ItGKa6gAKtKhe6P54-1" vertex="1">
          <mxGeometry x="550" y="420" width="150" height="70" as="geometry" />
        </mxCell>
        <mxCell id="BMfTMdnMGLnC48BqI3dr-4" value="通过免流配置，客户端通过替换域名的方式，直接访问免流CDN" style="shape=document;whiteSpace=wrap;html=1;boundedLbl=1;fillColor=#fff2cc;strokeColor=#d6b656;size=0.1111111111111111;align=left;" parent="Zx3ItGKa6gAKtKhe6P54-1" vertex="1">
          <mxGeometry x="960" y="676.25" width="150" height="62.5" as="geometry" />
        </mxCell>
        <mxCell id="BMfTMdnMGLnC48BqI3dr-5" value="接口请求" style="html=1;verticalAlign=bottom;endArrow=block;" parent="Zx3ItGKa6gAKtKhe6P54-1" edge="1">
          <mxGeometry width="80" relative="1" as="geometry">
            <mxPoint x="130.75" y="580" as="sourcePoint" />
            <mxPoint x="330.5" y="580" as="targetPoint" />
          </mxGeometry>
        </mxCell>
        <mxCell id="BMfTMdnMGLnC48BqI3dr-6" value="返回数据" style="html=1;verticalAlign=bottom;endArrow=open;dashed=1;endSize=8;" parent="Zx3ItGKa6gAKtKhe6P54-1" edge="1">
          <mxGeometry relative="1" as="geometry">
            <mxPoint x="330" y="620" as="sourcePoint" />
            <mxPoint x="130" y="620" as="targetPoint" />
            <Array as="points">
              <mxPoint x="220.5" y="620" />
            </Array>
          </mxGeometry>
        </mxCell>
        <mxCell id="BMfTMdnMGLnC48BqI3dr-7" value="&lt;span&gt;免流卡&lt;br&gt;（业务接口）&lt;br&gt;&lt;/span&gt;" style="text;html=1;strokeColor=none;fillColor=none;align=center;verticalAlign=middle;whiteSpace=wrap;rounded=0;" parent="Zx3ItGKa6gAKtKhe6P54-1" vertex="1">
          <mxGeometry x="5" y="570" width="80" height="20" as="geometry" />
        </mxCell>
        <mxCell id="BMfTMdnMGLnC48BqI3dr-8" value="在请求接口中，统一添加免流字段。" style="shape=document;whiteSpace=wrap;html=1;boundedLbl=1;fillColor=#fff2cc;strokeColor=#d6b656;size=0.1111111111111111;align=left;" parent="Zx3ItGKa6gAKtKhe6P54-1" vertex="1">
          <mxGeometry x="360" y="570" width="150" height="60" as="geometry" />
        </mxCell>
        <mxCell id="BMfTMdnMGLnC48BqI3dr-9" value="客户端所有请求统一走免流服务器，再由服务器分发到免流CDN。联通直接根据客户端访问的地址是否是中转服务器进行计算免流。" style="shape=document;whiteSpace=wrap;html=1;boundedLbl=1;fillColor=#fff2cc;strokeColor=#d6b656;size=0.1111111111111111;align=left;" parent="Zx3ItGKa6gAKtKhe6P54-1" vertex="1">
          <mxGeometry x="960" y="804" width="150" height="96" as="geometry" />
        </mxCell>
        <mxCell id="BMfTMdnMGLnC48BqI3dr-10" value="客户度获取免流&lt;br&gt;配置和状态" style="rounded=0;whiteSpace=wrap;html=1;fillColor=#dae8fc;strokeColor=#6c8ebf;" parent="Zx3ItGKa6gAKtKhe6P54-1" vertex="1">
          <mxGeometry x="-50" y="120" width="25" height="380" as="geometry" />
        </mxCell>
        <mxCell id="BMfTMdnMGLnC48BqI3dr-11" value="免流实现" style="rounded=0;whiteSpace=wrap;html=1;fillColor=#d5e8d4;strokeColor=#82b366;" parent="Zx3ItGKa6gAKtKhe6P54-1" vertex="1">
          <mxGeometry x="-50" y="525" width="25" height="365" as="geometry" />
        </mxCell>
      </root>
    </mxGraphModel>
  </diagram>
  <diagram id="dxQe6RQ59VyKmGhSH5cl" name="免流模块">
    
    <mxGraphModel dx="-254" dy="623" grid="1" gridSize="10" guides="1" tooltips="1" connect="1" arrows="1" fold="1" page="1" pageScale="1" pageWidth="1200" pageHeight="1600" math="0" shadow="0">
      
      <root>
        
        <mxCell id="RBBrFdm4qwBOUeEuhhhn-0" />
        
        <mxCell id="RBBrFdm4qwBOUeEuhhhn-1" parent="RBBrFdm4qwBOUeEuhhhn-0" />
        
        <mxCell id="68yQm4vrExPjKiZ2PvLh-0" value="WeiboImageDownloader&lt;br&gt;图片免流" style="rounded=0;whiteSpace=wrap;html=1;" vertex="1" parent="RBBrFdm4qwBOUeEuhhhn-1">
          
          <mxGeometry x="1360" y="1090" width="120" height="60" as="geometry" />
          
        </mxCell>
        
        <mxCell id="68yQm4vrExPjKiZ2PvLh-1" style="rounded=0;orthogonalLoop=1;jettySize=auto;html=1;exitX=1;exitY=0.5;exitDx=0;exitDy=0;entryX=0;entryY=0.5;entryDx=0;entryDy=0;" edge="1" parent="RBBrFdm4qwBOUeEuhhhn-1" source="68yQm4vrExPjKiZ2PvLh-2" target="68yQm4vrExPjKiZ2PvLh-12">
          
          <mxGeometry relative="1" as="geometry" />
          
        </mxCell>
        
        <mxCell id="68yQm4vrExPjKiZ2PvLh-2" value="WeiboLogHelper&lt;br&gt;日志免流" style="rounded=0;whiteSpace=wrap;html=1;" vertex="1" parent="RBBrFdm4qwBOUeEuhhhn-1">
          
          <mxGeometry x="1360" y="1000" width="120" height="60" as="geometry" />
          
        </mxCell>
        
        <mxCell id="68yQm4vrExPjKiZ2PvLh-3" style="edgeStyle=none;rounded=0;orthogonalLoop=1;jettySize=auto;html=1;exitX=1;exitY=0.5;exitDx=0;exitDy=0;entryX=0;entryY=0.5;entryDx=0;entryDy=0;" edge="1" parent="RBBrFdm4qwBOUeEuhhhn-1" source="68yQm4vrExPjKiZ2PvLh-4" target="68yQm4vrExPjKiZ2PvLh-19">
          
          <mxGeometry relative="1" as="geometry" />
          
        </mxCell>
        
        <mxCell id="68yQm4vrExPjKiZ2PvLh-4" value="WBPlayerSDK&lt;br&gt;播放器免流" style="rounded=0;whiteSpace=wrap;html=1;" vertex="1" parent="RBBrFdm4qwBOUeEuhhhn-1">
          
          <mxGeometry x="1360" y="1220" width="120" height="60" as="geometry" />
          
        </mxCell>
        
        <mxCell id="68yQm4vrExPjKiZ2PvLh-5" value="" style="rounded=0;orthogonalLoop=1;jettySize=auto;html=1;" edge="1" parent="RBBrFdm4qwBOUeEuhhhn-1" source="68yQm4vrExPjKiZ2PvLh-6" target="68yQm4vrExPjKiZ2PvLh-7">
          
          <mxGeometry relative="1" as="geometry" />
          
        </mxCell>
        
        <mxCell id="68yQm4vrExPjKiZ2PvLh-6" value="WeiboHttpClient&lt;br&gt;联通会员业务接口" style="rounded=0;whiteSpace=wrap;html=1;" vertex="1" parent="RBBrFdm4qwBOUeEuhhhn-1">
          
          <mxGeometry x="1360" y="810" width="120" height="60" as="geometry" />
          
        </mxCell>
        
        <mxCell id="68yQm4vrExPjKiZ2PvLh-7" value="替换域名" style="whiteSpace=wrap;html=1;rounded=0;" vertex="1" parent="RBBrFdm4qwBOUeEuhhhn-1">
          
          <mxGeometry x="1710" y="810" width="120" height="60" as="geometry" />
          
        </mxCell>
        
        <mxCell id="68yQm4vrExPjKiZ2PvLh-8" style="edgeStyle=none;rounded=0;orthogonalLoop=1;jettySize=auto;html=1;exitX=1;exitY=0.5;exitDx=0;exitDy=0;entryX=0;entryY=0.5;entryDx=0;entryDy=0;" edge="1" parent="RBBrFdm4qwBOUeEuhhhn-1" source="68yQm4vrExPjKiZ2PvLh-9" target="68yQm4vrExPjKiZ2PvLh-19">
          
          <mxGeometry relative="1" as="geometry" />
          
        </mxCell>
        
        <mxCell id="68yQm4vrExPjKiZ2PvLh-9" value="UploadkitComponents&lt;br&gt;上传免流" style="rounded=0;whiteSpace=wrap;html=1;" vertex="1" parent="RBBrFdm4qwBOUeEuhhhn-1">
          
          <mxGeometry x="1360" y="1320" width="120" height="60" as="geometry" />
          
        </mxCell>
        
        <mxCell id="68yQm4vrExPjKiZ2PvLh-10" value="" style="rounded=0;orthogonalLoop=1;jettySize=auto;html=1;" edge="1" parent="RBBrFdm4qwBOUeEuhhhn-1" source="68yQm4vrExPjKiZ2PvLh-11" target="68yQm4vrExPjKiZ2PvLh-12">
          
          <mxGeometry relative="1" as="geometry" />
          
        </mxCell>
        
        <mxCell id="68yQm4vrExPjKiZ2PvLh-11" value="RequestParam&lt;br&gt;免流卡业务接口" style="rounded=0;whiteSpace=wrap;html=1;" vertex="1" parent="RBBrFdm4qwBOUeEuhhhn-1">
          
          <mxGeometry x="1360" y="910" width="120" height="60" as="geometry" />
          
        </mxCell>
        
        <mxCell id="68yQm4vrExPjKiZ2PvLh-12" value="&lt;div style=&quot;text-align: left&quot;&gt;&lt;span&gt;免流类型参数&lt;/span&gt;&lt;br&gt;&lt;/div&gt;" style="whiteSpace=wrap;html=1;rounded=0;" vertex="1" parent="RBBrFdm4qwBOUeEuhhhn-1">
          
          <mxGeometry x="1710" y="910" width="120" height="60" as="geometry" />
          
        </mxCell>
        
        <mxCell id="68yQm4vrExPjKiZ2PvLh-13" value="" style="rounded=0;orthogonalLoop=1;jettySize=auto;html=1;entryX=0;entryY=0.5;entryDx=0;entryDy=0;" edge="1" parent="RBBrFdm4qwBOUeEuhhhn-1" target="68yQm4vrExPjKiZ2PvLh-14">
          
          <mxGeometry relative="1" as="geometry">
            
            <mxPoint x="1480" y="1030" as="sourcePoint" />
            
          </mxGeometry>
          
        </mxCell>
        
        <mxCell id="68yQm4vrExPjKiZ2PvLh-14" value="&lt;span style=&quot;text-align: left&quot;&gt;替换地址&amp;amp;header&lt;br&gt;&lt;/span&gt;" style="whiteSpace=wrap;html=1;rounded=0;" vertex="1" parent="RBBrFdm4qwBOUeEuhhhn-1">
          
          <mxGeometry x="1710" y="1090" width="120" height="60" as="geometry" />
          
        </mxCell>
        
        <mxCell id="68yQm4vrExPjKiZ2PvLh-15" value="" style="rounded=0;orthogonalLoop=1;jettySize=auto;html=1;entryX=0;entryY=0.5;entryDx=0;entryDy=0;exitX=1;exitY=0.5;exitDx=0;exitDy=0;" edge="1" parent="RBBrFdm4qwBOUeEuhhhn-1" source="68yQm4vrExPjKiZ2PvLh-0" target="68yQm4vrExPjKiZ2PvLh-14">
          
          <mxGeometry relative="1" as="geometry">
            
            <mxPoint x="1480" y="1140" as="sourcePoint" />
            
            <mxPoint x="1710" y="1140" as="targetPoint" />
            
          </mxGeometry>
          
        </mxCell>
        
        <mxCell id="68yQm4vrExPjKiZ2PvLh-16" value="" style="rounded=0;orthogonalLoop=1;jettySize=auto;html=1;entryX=0;entryY=0.5;entryDx=0;entryDy=0;" edge="1" parent="RBBrFdm4qwBOUeEuhhhn-1" target="68yQm4vrExPjKiZ2PvLh-17">
          
          <mxGeometry relative="1" as="geometry">
            
            <mxPoint x="1480" y="1250" as="sourcePoint" />
            
          </mxGeometry>
          
        </mxCell>
        
        <mxCell id="68yQm4vrExPjKiZ2PvLh-17" value="&lt;span style=&quot;text-align: left&quot;&gt;视频接口&lt;br&gt;&lt;/span&gt;" style="whiteSpace=wrap;html=1;rounded=0;" vertex="1" parent="RBBrFdm4qwBOUeEuhhhn-1">
          
          <mxGeometry x="1710" y="1320" width="120" height="60" as="geometry" />
          
        </mxCell>
        
        <mxCell id="68yQm4vrExPjKiZ2PvLh-18" value="" style="rounded=0;orthogonalLoop=1;jettySize=auto;html=1;entryX=0;entryY=0.5;entryDx=0;entryDy=0;" edge="1" parent="RBBrFdm4qwBOUeEuhhhn-1" target="68yQm4vrExPjKiZ2PvLh-17">
          
          <mxGeometry relative="1" as="geometry">
            
            <mxPoint x="1480" y="1350" as="sourcePoint" />
            
            <mxPoint x="1710" y="1350" as="targetPoint" />
            
          </mxGeometry>
          
        </mxCell>
        
        <mxCell id="68yQm4vrExPjKiZ2PvLh-19" value="&lt;span style=&quot;text-align: left&quot;&gt;替换header&lt;br&gt;&lt;/span&gt;" style="whiteSpace=wrap;html=1;rounded=0;" vertex="1" parent="RBBrFdm4qwBOUeEuhhhn-1">
          
          <mxGeometry x="1710" y="1220" width="120" height="60" as="geometry" />
          
        </mxCell>
        
        <mxCell id="kEkCI56yb4XTMgC40Mdx-0" value="&lt;div style=&quot;text-align: left&quot;&gt;CarrierCenter.&lt;span&gt;getCarrierFreeType()&lt;/span&gt;&lt;/div&gt;" style="shape=document;whiteSpace=wrap;html=1;boundedLbl=1;fillColor=#fff2cc;strokeColor=#d6b656;" vertex="1" parent="RBBrFdm4qwBOUeEuhhhn-1">
          
          <mxGeometry x="1920" y="910" width="220" height="80" as="geometry" />
          
        </mxCell>
        
        <mxCell id="kEkCI56yb4XTMgC40Mdx-1" value="&lt;div style=&quot;text-align: left&quot;&gt;MultiMediaFreeTrafficHelper.&lt;br&gt;checkAndSetSimCardImgUrl&lt;br&gt;&lt;/div&gt;" style="shape=document;whiteSpace=wrap;html=1;boundedLbl=1;fillColor=#fff2cc;strokeColor=#d6b656;" vertex="1" parent="RBBrFdm4qwBOUeEuhhhn-1">
          
          <mxGeometry x="1920" y="1080" width="220" height="80" as="geometry" />
          
        </mxCell>
        
        <mxCell id="kEkCI56yb4XTMgC40Mdx-2" value="&lt;div style=&quot;text-align: left&quot;&gt;MultiMediaFreeTrafficHelper&lt;br&gt;getMultiMediaUnicomProxyHeaders&lt;br&gt;&lt;/div&gt;" style="shape=document;whiteSpace=wrap;html=1;boundedLbl=1;fillColor=#fff2cc;strokeColor=#d6b656;" vertex="1" parent="RBBrFdm4qwBOUeEuhhhn-1">
          
          <mxGeometry x="1920" y="1210" width="220" height="80" as="geometry" />
          
        </mxCell>
        
        <mxCell id="kEkCI56yb4XTMgC40Mdx-3" value="&lt;div style=&quot;text-align: left&quot;&gt;MultiMediaFreeTrafficHelper&lt;br&gt;getMultiMediaUnicomProxyUrl&lt;br&gt;&lt;/div&gt;" style="shape=document;whiteSpace=wrap;html=1;boundedLbl=1;fillColor=#fff2cc;strokeColor=#d6b656;" vertex="1" parent="RBBrFdm4qwBOUeEuhhhn-1">
          
          <mxGeometry x="1920" y="1320" width="220" height="80" as="geometry" />
          
        </mxCell>
        
        <mxCell id="kEkCI56yb4XTMgC40Mdx-5" value="&lt;div style=&quot;text-align: left&quot;&gt;UnicomVIP&lt;br&gt;&lt;/div&gt;" style="shape=document;whiteSpace=wrap;html=1;boundedLbl=1;fillColor=#fff2cc;strokeColor=#d6b656;" vertex="1" parent="RBBrFdm4qwBOUeEuhhhn-1">
          
          <mxGeometry x="1920" y="800" width="220" height="80" as="geometry" />
          
        </mxCell>
        
      </root>
      
    </mxGraphModel>
    
  </diagram>
</mxfile>
